<?xml version="1.0" encoding="utf-8"?>
<!-- Generator: Adobe Illustrator 24.3.0, SVG Export Plug-In . SVG Version: 6.00 Build 0)  -->
<svg version="1.1" id="board-2" xmlns="http://www.w3.org/2000/svg" viewBox="0 0 512 512" xml:space="preserve">
<path d="M410.4,0H101.6C45.5,0,0,45.5,0,101.6v308.8C0,466.5,45.5,512,101.6,512h308.8c56.1,0,101.6-45.5,101.6-101.6V101.6
	C512,45.5,466.5,0,410.4,0z M178,219.4c0,20.7-16.8,37.5-37.5,37.5h0c-20.7,0-37.5-16.8-37.5-37.5v-78.2c0-20.7,16.8-37.5,37.5-37.5
	h0c20.7,0,37.5,16.8,37.5,37.5V219.4z M293.5,295.2c0,20.7-16.8,37.5-37.5,37.5h0c-20.7,0-37.5-16.8-37.5-37.5V141.4
	c0-20.7,16.8-37.5,37.5-37.5h0c20.7,0,37.5,16.8,37.5,37.5V295.2z M409,371.3c0,20.7-16.8,37.5-37.5,37.5h0
	c-20.7,0-37.5-16.8-37.5-37.5V140.7c0-20.7,16.8-37.5,37.5-37.5h0c20.7,0,37.5,16.8,37.5,37.5V371.3z"/>
</svg>
