<?xml version="1.0" encoding="utf-8"?>
<!-- Generator: Adobe Illustrator 24.3.0, SVG Export Plug-In . SVG Version: 6.00 Build 0)  -->
<svg version="1.1" id="board-4" xmlns="http://www.w3.org/2000/svg" viewBox="0 0 512 512" xml:space="preserve">
   <path d="M410.4,1.1H101.6C45.5,1.1,0,46.6,0,102.7v308.8c0,56.1,45.5,101.6,101.6,101.6h308.8c56.1,0,101.6-45.5,101.6-101.6V102.7
    	C512,46.6,466.5,1.1,410.4,1.1z M178,372.4c0,20.7-16.8,37.5-37.5,37.5l0,0c-20.7,0-37.5-16.8-37.5-37.5V141.8
    	c0-20.7,16.8-37.5,37.5-37.5l0,0c20.7,0,37.5,16.8,37.5,37.5V372.4z M293.5,220.5c0,20.7-16.8,37.5-37.5,37.5h0
    	c-20.7,0-37.5-16.8-37.5-37.5v-78.2c0-20.7,16.8-37.5,37.5-37.5h0c20.7,0,37.5,16.8,37.5,37.5V220.5z M409,296.3
    	c0,20.7-16.8,37.5-37.5,37.5h0c-20.7,0-37.5-16.8-37.5-37.5V142.5c0-20.7,16.8-37.5,37.5-37.5h0c20.7,0,37.5,16.8,37.5,37.5V296.3z" />
</svg>
